<?xml version="1.0" encoding="utf-8"?>
<!-- Generator: Adobe Illustrator 23.0.1, SVG Export Plug-In . SVG Version: 6.00 Build 0)  -->
<svg version="1.1" id="Layer_1" xmlns="http://www.w3.org/2000/svg" xmlns:xlink="http://www.w3.org/1999/xlink" x="0px" y="0px"
	 viewBox="0 0 384.07 336.32" style="enable-background:new 0 0 384.07 336.32;" xml:space="preserve">
<g>
	<g>
		<path d="M0,276.28c5.45-5.94,10.69-12.09,16.4-17.77c4.15-4.13,7.44-8.76,10.57-13.64c13.48-21.07,22.93-41.48,30.46-69.89
			c3.02-11.38,4.65-22.93,7.44-34.3c2.97-12.11,0.9-24.67,1.06-37.03c0.28-21.48,0.01-42.97,0.1-64.45
			c0.05-12.83,5.08-17.83,17.92-17.9c16.49-0.09,32.97-0.02,49.52-0.02c2.9-2.29,1.25-5.5,1.49-8.28
			c0.69-7.96,5.64-13.03,12.7-12.72c6.08,0.27,10.89,5.52,11.32,12.53c0.15,2.44,0.02,4.9,0.02,7.9c17.68,0,35.02,0,53.38,0
			c2.14-3.75-0.52-9.42,3.36-14.14c4.42-5.36,5.53-7.25,11.37-6.3c3.76,0.61,9.36,5.67,9.81,9.5c0.4,3.4,0.08,6.89,0.08,10.92
			c18.65,0,36.98,0,56.1,0c2.48-2.18,0.41-5.87,0.86-9.11c0.72-5.15,5.04-10.42,9.61-11.31c5.71-1.11,7.09,1.07,11.88,7.4
			c3.25,4.3,1.56,8.42,3.06,13.01c19.11,0,38.44,0,57.63,0c2.62,3.02,4.9,5.65,7.87,9.07c0,0.75,0,2.71,0,4.68
			c0,93.43,0,186.85,0,280.28c0,3.5,0.17,7-0.04,10.49c-0.33,5.54-5.65,10.68-11.26,11.06c-1.99,0.14-4,0.02-5.99,0.02
			c-95.92,0-191.85,0-287.77,0c-1.94,0-3.89,0-5.41,0c-5.6-5.3-7.91-11.2-7.61-18.44c0.36-8.44,0.08-16.9,0.08-25.96
			c-20.6,0-40.92,0-57.78,0c-6.78-1.23-3.34-7.21-8.22-6.6C0,282.28,0,279.28,0,276.28z M90.83,111.7
			c-3.83,27.47-6.14,55.49-15.19,82.85c-8.86,26.8-21.93,50.84-38.19,75.17c88.18,0,174.42,0,261.12,0
			c22.74-17.82,36.15-43.36,45.66-69.98c9.97-27.92,18.11-57.05,15.41-88.04C270.06,111.7,180.78,111.7,90.83,111.7z M318.74,45.32
			c-1.8,5.07,0,9.21-3.25,13.52c-4.83,6.41-6.09,8.53-11.86,7.44c-4.52-0.85-8.96-6.17-9.67-11.24c-0.45-3.26,1.55-6.94-0.87-9.2
			c-19.05,0-37.38,0-56.09,0c0,4,0.31,7.47-0.08,10.87c-0.44,3.82-6,8.94-9.74,9.57c-5.96,1.01-7.01-0.75-11.44-6.24
			c-3.81-4.74-1.35-10.36-3.34-14.23c-18.31,0-35.65,0-53.4,0c0,3.47,0.21,6.43-0.05,9.35c-0.51,5.72-5.82,10.85-11.22,11.12
			c-6.52,0.33-11.89-4.44-12.77-11.13c-0.43-3.29,1.44-6.95-0.87-9.35c-14.96,0-29.31,0-43.81,0c0,14.86,0,29.21,0,43.97
			c89.94,0,179.59,0,269.71,0c0-7.93,0.13-15.36-0.04-22.79c-0.17-7.25,0.79-14.61-0.57-21.65
			C345.36,45.32,332.39,45.32,318.74,45.32z M309.21,291.8c-72.08,0-145.42,0-218.91,0c0,7.88,0,15.23,0,22.88
			c90,0,179.69,0,269.7,0c0-15.55,0.17-30.5-0.05-45.46c-0.22-14.56,0.95-29.19-0.84-44.84
			C345.15,249.55,332.05,273.49,309.21,291.8z"/>
	</g>
</g>
</svg>
